<svg xmlns="http://www.w3.org/2000/svg" version="1.1" xmlns:xlink="http://www.w3.org/1999/xlink" xmlns:svgjs="http://svgjs.dev/svgjs" width="1000" height="623" viewBox="0 0 1000 623"><g transform="matrix(1,0,0,1,-0.6060606060606233,0.2522267206477409)"><svg viewBox="0 0 396 247" data-background-color="#ffffff" preserveAspectRatio="xMidYMid meet" height="623" width="1000" xmlns="http://www.w3.org/2000/svg" xmlns:xlink="http://www.w3.org/1999/xlink"><g id="tight-bounds" transform="matrix(1,0,0,1,0.2400000000000091,-0.09999999999999432)"><svg viewBox="0 0 395.52 247.2" height="247.2" width="395.52"><g><svg></svg></g><g><svg viewBox="0 0 395.52 247.2" height="247.2" width="395.52"><g transform="matrix(1,0,0,1,39.55199999999999,92.51673537847952)"><svg viewBox="0 0 316.416 62.16652924304093" height="62.16652924304093" width="316.416"><g><svg viewBox="0 0 316.416 62.16652924304093" height="62.16652924304093" width="316.416"><g><svg viewBox="0 0 316.416 62.16652924304093" height="62.16652924304093" width="316.416"><g><svg viewBox="0 0 316.416 62.16652924304093" height="62.16652924304093" width="316.416"><g><svg viewBox="0 0 316.416 35.25512841910061" height="35.25512841910061" width="316.416"><g transform="matrix(1,0,0,1,0,0)"><svg width="316.416" viewBox="2.549999952316284 -35.54999923706055 323.5299987792969 36.04999923706055" height="35.25512841910061" data-palette-color="#e83d95"><path d="M16.25-0.55L16.25-0.55Q18.75-0.55 20.68-1.9 22.6-3.25 22.6-5.98 22.6-8.7 20.53-10.15 18.45-11.6 14.63-12.68 10.8-13.75 9.08-14.55 7.35-15.35 5.8-16.65L5.8-16.65Q2.7-19.25 2.7-24.7L2.7-24.7Q2.7-29.15 5.88-32.35 9.05-35.55 14.55-35.55L14.55-35.55Q17.2-35.55 20.08-34.77 22.95-34 23.65-34 24.35-34 24.9-35L24.9-35 25.45-35 25.8-24.9 25-24.9Q22.6-29.25 19.98-31.88 17.35-34.5 14.28-34.5 11.2-34.5 9.5-33.08 7.8-31.65 7.8-29.28 7.8-26.9 9.83-25.63 11.85-24.35 14.8-23.55 17.75-22.75 18.68-22.45 19.6-22.15 20.98-21.63 22.35-21.1 23.23-20.53 24.1-19.95 25.08-19.07 26.05-18.2 26.6-17.15L26.6-17.15Q27.95-14.75 27.95-11.45L27.95-11.45Q27.95-6.05 24.58-2.78 21.2 0.5 15.7 0.5L15.7 0.5Q12.85 0.5 9.18-0.25 5.5-1 5.1-1L5.1-1Q4.4-1 3.75 0.5L3.75 0.5 3.05 0.5 2.55-11.4 3.4-11.4Q5.6-7.05 9.03-3.8 12.45-0.55 16.25-0.55ZM46.05-0.95L49.6-0.95 45.95-11.75 36.05-11.75 32.2-0.95 35.95-0.95 35.95 0 28.3 0 28.3-0.95 30.65-0.95 43.4-35.3 47.5-35.3 60.1-0.95 62.4-0.95 62.4 0 46.05 0 46.05-0.95ZM45.55-12.85L41.2-25.95 36.5-12.85 45.55-12.85ZM73.75-10.65Q73.75-6.05 75.32-3.6 76.9-1.15 81-1.15 85.1-1.15 87.3-3.7 89.5-6.25 89.5-11.45L89.5-11.45 89.5-34.05 86.25-34.05 86.25-35 93.55-35 93.55-34.05 90.8-34.05 90.8-11.8Q90.8-5.6 88.05-2.55 85.3 0.5 78.32 0.5 71.35 0.5 67.67-2.4 64-5.3 64-12.35L64-12.35 64-34.05 61.25-34.05 61.25-35 77-35 77-34.05 73.75-34.05 73.75-10.65ZM126.59-34.05L123.84-34.05 123.84 0 116.84 0 99.69-32.35 99.69-0.95 102.44-0.95 102.44 0 95.59 0 95.59-0.95 98.34-0.95 98.34-34.05 95.59-34.05 95.59-35 109.39-35 122.49-9.9 122.49-34.05 119.74-34.05 119.74-35 126.59-35 126.59-34.05ZM163.54-18.1L163.54-18.1Q163.54-7.8 157.74-3.75L157.74-3.75Q152.39 0 143.04 0L143.04 0 128.89 0 128.89-0.95 132.19-0.95 132.19-34.05 128.89-34.05 128.89-35 144.34-35Q153.94-35 158.74-31.08 163.54-27.15 163.54-18.1ZM141.94-34.05L141.94-0.95 143.84-0.95Q148.89-0.95 151.06-4.53 153.24-8.1 153.24-16.5L153.24-16.5 153.24-19.4Q153.24-30.65 148.94-32.95L148.94-32.95Q146.89-34.05 143.14-34.05L143.14-34.05 141.94-34.05ZM180.39-0.95L183.94-0.95 180.29-11.75 170.39-11.75 166.54-0.95 170.29-0.95 170.29 0 162.64 0 162.64-0.95 164.99-0.95 177.74-35.3 181.84-35.3 194.44-0.95 196.74-0.95 196.74 0 180.39 0 180.39-0.95ZM179.89-12.85L175.54-25.95 170.84-12.85 179.89-12.85ZM213.44-17.7L213.44-17.7 210.79-17.7 210.79-0.95 214.04-0.95 214.04 0 197.79 0 197.79-0.95 201.04-0.95 201.04-34.05 197.79-34.05 197.79-35 212.89-35Q219.39-35 222.11-34.33 224.84-33.65 225.94-32.7L225.94-32.7Q228.34-30.75 228.34-26.5 228.34-22.25 226.24-20.43 224.14-18.6 219.84-18.25L219.84-18.25 219.84-18.1Q223.89-17.55 225.49-15.7 227.09-13.85 227.09-9.5L227.09-9.5 227.09-6.85Q227.09-4.25 227.36-3.35 227.64-2.45 228.54-2.45 229.44-2.45 229.96-3.28 230.49-4.1 230.94-6.75L230.94-6.75 231.79-6.65Q231.24-2.4 229.86-0.95 228.49 0.5 224.39 0.5 220.29 0.5 218.56-1.43 216.84-3.35 216.84-8.65L216.84-8.65 216.84-12.3Q216.84-15.1 216.11-16.4 215.39-17.7 213.44-17.7ZM212.44-34.05L210.79-34.05 210.79-18.65 212.39-18.65Q215.24-18.65 216.61-20.4 217.99-22.15 217.99-26.1L217.99-26.1 217.99-27.55Q217.99-31.5 216.66-32.77 215.34-34.05 212.44-34.05L212.44-34.05ZM249.23-17.7L249.23-17.7 246.58-17.7 246.58-0.95 249.83-0.95 249.83 0 233.58 0 233.58-0.95 236.83-0.95 236.83-34.05 233.58-34.05 233.58-35 248.68-35Q255.18-35 257.91-34.33 260.63-33.65 261.73-32.7L261.73-32.7Q264.13-30.75 264.13-26.5 264.13-22.25 262.03-20.43 259.93-18.6 255.63-18.25L255.63-18.25 255.63-18.1Q259.68-17.55 261.28-15.7 262.88-13.85 262.88-9.5L262.88-9.5 262.88-6.85Q262.88-4.25 263.16-3.35 263.43-2.45 264.33-2.45 265.23-2.45 265.76-3.28 266.28-4.1 266.73-6.75L266.73-6.75 267.58-6.65Q267.03-2.4 265.66-0.95 264.28 0.5 260.18 0.5 256.08 0.5 254.36-1.43 252.63-3.35 252.63-8.65L252.63-8.65 252.63-12.3Q252.63-15.1 251.91-16.4 251.18-17.7 249.23-17.7ZM248.23-34.05L246.58-34.05 246.58-18.65 248.18-18.65Q251.03-18.65 252.41-20.4 253.78-22.15 253.78-26.1L253.78-26.1 253.78-27.55Q253.78-31.5 252.46-32.77 251.13-34.05 248.23-34.05L248.23-34.05ZM278.18-34.2L284.98-18.55 292.08-34.2 287.03-34.2 287.03-35 296.88-35 296.88-34.2 293.58-34.2 286.03-17.5 286.03-0.95 289.08-0.95 289.08 0 273.23 0 273.23-0.95 276.28-0.95 276.28-16.55 267.78-34.2 265.43-34.2 265.43-35 281.43-35 281.43-34.2 278.18-34.2ZM309.73-0.95L313.28-0.95 309.63-11.75 299.73-11.75 295.88-0.95 299.63-0.95 299.63 0 291.98 0 291.98-0.95 294.33-0.95 307.08-35.3 311.18-35.3 323.78-0.95 326.08-0.95 326.08 0 309.73 0 309.73-0.95ZM309.23-12.85L304.88-25.95 300.18-12.85 309.23-12.85Z" opacity="1" transform="matrix(1,0,0,1,0,0)" fill="#e83d95" class="undefined-text-0" data-fill-palette-color="primary" id="text-0"></path></svg></g></svg></g><g transform="matrix(1,0,0,1,0,43.5780181157682)"><svg viewBox="0 0 185.7678336 18.588511127272724" height="18.588511127272724" width="185.7678336"><g transform="matrix(1,0,0,1,0,0)"><svg width="185.7678336" viewBox="0.699999988079071 -35.400001525878906 475.15997314453125 47.55000305175781" height="18.588511127272724" data-palette-color="#a62a6c"><path d="M21.1 0L11.2 0 2.2-27.45 0.7-32.4 0.7-35.4 8.15-35.4 15.4-8.6 16.4-8.6 21.7-35.4 31.8-35.4 36-14.95 37-8.6 38-8.6 45.2-35.4 52.6-35.4 52.6-32.4 51.1-27.45 42.2 0 32.3 0 27.1-27.6 26.05-27.6 25-20.45 21.1 0ZM63.05 0.5L63.05 0.5Q59.8 0.5 57.25-0.65 54.7-1.8 53.25-4.5 51.8-7.2 51.8-11.8L51.8-11.8Q51.8-16.25 53.35-18.95 54.9-21.65 57.45-22.88 60-24.1 63.05-24.1L63.05-24.1Q66.4-24.1 68.32-23.35 70.25-22.6 71.25-21.9L71.25-21.9 73.75-13.95 72.75-10.85 58.75-10.85Q59.05-8.2 60.65-6.6 62.25-5 65.55-5L65.55-5Q68.25-5 69.92-5.65 71.6-6.3 72.25-6.65L72.25-6.65 72.25-1.45Q70.75-0.65 68.42-0.08 66.1 0.5 63.05 0.5ZM58.7-14.05L58.7-14.05 66.2-15.05 65.45-18.75Q65.1-18.95 64.47-19.05 63.85-19.15 63.35-19.15L63.35-19.15Q61.1-19.15 59.9-17.57 58.7-16 58.7-14.05ZM103.64 0L95.14 0 88.84-17.1 87.84-23.6 95.34-23.6 99.09-7 100.09-7 103.89-23.6 111.34-23.6 110.34-17.1 103.64 0ZM121.84 0.5L121.84 0.5Q118.49 0.5 116.17-1.23 113.84-2.95 113.84-6.6L113.84-6.6Q113.84-10.45 116.29-12.48 118.74-14.5 122.84-14.5L122.84-14.5Q125.84-14.5 127.42-14 128.99-13.5 129.49-13.25L129.49-13.25 129.84-13.55Q129.84-15.05 129.59-16.2 129.34-17.35 128.44-17.98 127.54-18.6 125.64-18.6L125.64-18.6Q122.24-18.6 119.57-18.05 116.89-17.5 115.34-17.05L115.34-17.05 115.34-22.55Q116.89-23.1 120.04-23.58 123.19-24.05 126.84-24.05L126.84-24.05Q129.94-24.05 131.92-23.23 133.89-22.4 134.97-21 136.04-19.6 136.47-17.93 136.89-16.25 136.89-14.6L136.89-14.6 136.89-7.95 137.89-2.9 136.89 0.05 130.34 0.05 130.34-2.4 129.84-2.65Q129.44-2.15 128.47-1.4 127.49-0.65 125.87-0.08 124.24 0.5 121.84 0.5ZM124.59-5.05L124.59-5.05Q126.74-5.05 127.97-5.45 129.19-5.85 129.84-6.25L129.84-6.25 129.84-7.2Q129.84-8.15 128.72-9.1 127.59-10.05 125.04-10.05L125.04-10.05Q123.14-10.05 122.24-9.3 121.34-8.55 121.34-7.4L121.34-7.4Q121.34-6.2 122.19-5.63 123.04-5.05 124.59-5.05ZM149.54 0L142.54 0 142.54-27.4 141.49-32.4 142.54-35.4 149.54-35.4 149.54 0ZM161.89 0.5L161.89 0.5Q158.89 0.5 157.26-0.65 155.64-1.8 155.01-3.98 154.39-6.15 154.39-9.2L154.39-9.2 154.39-23.65 161.39-23.65 161.39-9Q161.39-6.95 162.16-6 162.94-5.05 164.79-5.05L164.79-5.05Q167.14-5.05 168.51-6.85 169.89-8.65 169.89-11.05L169.89-11.05 169.89-23.65 176.89-23.65 176.89-8.05 177.94-3.05 176.89 0 170.44 0 170.44-2.45 169.94-2.7Q169.29-2.05 168.06-1.3 166.84-0.55 165.26-0.03 163.69 0.5 161.89 0.5ZM192.68 0.5L192.68 0.5Q189.43 0.5 186.88-0.65 184.33-1.8 182.88-4.5 181.43-7.2 181.43-11.8L181.43-11.8Q181.43-16.25 182.98-18.95 184.53-21.65 187.08-22.88 189.63-24.1 192.68-24.1L192.68-24.1Q196.03-24.1 197.96-23.35 199.88-22.6 200.88-21.9L200.88-21.9 203.38-13.95 202.38-10.85 188.38-10.85Q188.68-8.2 190.28-6.6 191.88-5 195.18-5L195.18-5Q197.88-5 199.56-5.65 201.23-6.3 201.88-6.65L201.88-6.65 201.88-1.45Q200.38-0.65 198.06-0.08 195.73 0.5 192.68 0.5ZM188.33-14.05L188.33-14.05 195.83-15.05 195.08-18.75Q194.73-18.95 194.11-19.05 193.48-19.15 192.98-19.15L192.98-19.15Q190.73-19.15 189.53-17.57 188.33-16 188.33-14.05ZM221.53 12.15L221.53 12.15 214.48 9.65 216.48 3.7 223.48 5.7Q224.93 5.7 225.93 4.83 226.93 3.95 227.6 2.63 228.28 1.3 228.58-0.05L228.58-0.05 223.93-0.05 218.43-17.15 217.48-23.65 224.98-23.65 228.73-5.65 229.73-5.65 233.48-23.65 240.98-23.65Q240.98-23.65 240.65-22.08 240.33-20.5 239.75-17.9 239.18-15.3 238.4-12.18 237.63-9.05 236.78-5.88 235.93-2.7 235.03-0.05L235.03-0.05Q233.68 4.1 232.05 6.8 230.43 9.5 227.98 10.83 225.53 12.15 221.53 12.15ZM254.28 0.5L254.28 0.5Q248.18 0.5 245.33-2.7 242.48-5.9 242.48-11.8L242.48-11.8Q242.48-17.75 245.33-20.93 248.18-24.1 254.28-24.1L254.28-24.1Q260.58-24.1 263.3-20.93 266.03-17.75 266.03-11.8L266.03-11.8Q266.03-5.9 263.3-2.7 260.58 0.5 254.28 0.5ZM254.28-4.5L254.28-4.5Q256.33-4.5 257.65-6.1 258.98-7.7 258.98-11.8L258.98-11.8Q258.98-15.9 257.65-17.5 256.33-19.1 254.28-19.1L254.28-19.1Q252.18-19.1 250.85-17.5 249.53-15.9 249.53-11.8L249.53-11.8Q249.53-7.7 250.88-6.1 252.23-4.5 254.28-4.5ZM277.02 0.5L277.02 0.5Q274.02 0.5 272.4-0.65 270.77-1.8 270.15-3.98 269.52-6.15 269.52-9.2L269.52-9.2 269.52-23.65 276.52-23.65 276.52-9Q276.52-6.95 277.3-6 278.07-5.05 279.92-5.05L279.92-5.05Q282.27-5.05 283.65-6.85 285.02-8.65 285.02-11.05L285.02-11.05 285.02-23.65 292.02-23.65 292.02-8.05 293.07-3.05 292.02 0 285.57 0 285.57-2.45 285.07-2.7Q284.42-2.05 283.2-1.3 281.97-0.55 280.4-0.03 278.82 0.5 277.02 0.5ZM305.02 0L298.12 0 298.12-15.65 297.07-20.65 298.12-23.65 302.92-23.65 303.92-22.5Q303.92-22.5 304.6-22.93 305.27-23.35 306.52-23.75 307.77-24.15 309.57-24.15L309.57-24.15Q310.57-24.15 311.57-24 312.57-23.85 313.12-23.6L313.12-23.6 316.37-20.35 313.62-15.45 306.77-18.9 305.02-18.2 305.02 0ZM331.37-15.05L330.37-20.55 331.92-23.6 337.37-23.6 337.37-21.45 337.82-21.15Q338.37-21.65 339.34-22.33 340.32-23 341.72-23.55 343.12-24.1 344.87-24.1L344.87-24.1Q350.07-24.1 352.32-20.65L352.32-20.65Q353.17-21.9 354.99-23.03 356.82-24.15 360.07-24.15L360.07-24.15Q364.57-24.15 366.82-21.6 369.07-19.05 369.07-14.45L369.07-14.45 369.07-8.05 370.12-3.05 369.07 0 362.12 0 362.12-14.65Q362.12-16.55 361.09-17.57 360.07-18.6 358.17-18.6L358.17-18.6Q356.22-18.6 355.04-17.5 353.87-16.4 353.87-14.6L353.87-14.6 353.87-14.6 353.87-14.4 353.87 0 346.87 0 346.87-14.6Q346.87-16.5 346.04-17.53 345.22-18.55 343.47-18.55L343.47-18.55 338.37-17.6 338.37 0 331.37 0 331.37-15.05ZM385.21 0.5L385.21 0.5Q379.11 0.5 376.26-2.7 373.41-5.9 373.41-11.8L373.41-11.8Q373.41-17.75 376.26-20.93 379.11-24.1 385.21-24.1L385.21-24.1Q391.51-24.1 394.24-20.93 396.96-17.75 396.96-11.8L396.96-11.8Q396.96-5.9 394.24-2.7 391.51 0.5 385.21 0.5ZM385.21-4.5L385.21-4.5Q387.26-4.5 388.59-6.1 389.91-7.7 389.91-11.8L389.91-11.8Q389.91-15.9 388.59-17.5 387.26-19.1 385.21-19.1L385.21-19.1Q383.11-19.1 381.79-17.5 380.46-15.9 380.46-11.8L380.46-11.8Q380.46-7.7 381.81-6.1 383.16-4.5 385.21-4.5ZM408.46 0L401.46 0 401.46-15.05 400.46-20.55 402.01-23.6 407.46-23.6 407.46-21.45 407.91-21.15Q408.46-21.65 409.44-22.33 410.41-23 411.81-23.55 413.21-24.1 414.96-24.1L414.96-24.1Q419.46-24.1 421.71-21.55 423.96-19 423.96-14.4L423.96-14.4 423.96-8.05 425.01-3.05 423.96 0 416.96 0 416.96-14.6Q416.96-16.5 416.14-17.53 415.31-18.55 413.56-18.55L413.56-18.55 408.46-17.6 408.46 0ZM439.56 0.5L439.56 0.5Q436.31 0.5 433.76-0.65 431.21-1.8 429.76-4.5 428.31-7.2 428.31-11.8L428.31-11.8Q428.31-16.25 429.86-18.95 431.41-21.65 433.96-22.88 436.51-24.1 439.56-24.1L439.56-24.1Q442.91-24.1 444.83-23.35 446.76-22.6 447.76-21.9L447.76-21.9 450.26-13.95 449.26-10.85 435.26-10.85Q435.56-8.2 437.16-6.6 438.76-5 442.06-5L442.06-5Q444.76-5 446.43-5.65 448.11-6.3 448.76-6.65L448.76-6.65 448.76-1.45Q447.26-0.65 444.93-0.08 442.61 0.5 439.56 0.5ZM435.21-14.05L435.21-14.05 442.71-15.05 441.96-18.75Q441.61-18.95 440.98-19.05 440.36-19.15 439.86-19.15L439.86-19.15Q437.61-19.15 436.41-17.57 435.21-16 435.21-14.05ZM456.41 12.15L456.41 12.15 449.36 9.65 451.36 3.7 458.36 5.7Q459.81 5.7 460.81 4.83 461.81 3.95 462.48 2.63 463.16 1.3 463.46-0.05L463.46-0.05 458.81-0.05 453.31-17.15 452.36-23.65 459.86-23.65 463.61-5.65 464.61-5.65 468.36-23.65 475.86-23.65Q475.86-23.65 475.53-22.08 475.21-20.5 474.63-17.9 474.06-15.3 473.28-12.18 472.51-9.05 471.66-5.88 470.81-2.7 469.91-0.05L469.91-0.05Q468.56 4.1 466.93 6.8 465.31 9.5 462.86 10.83 460.41 12.15 456.41 12.15Z" opacity="1" transform="matrix(1,0,0,1,0,0)" fill="#a62a6c" class="undefined-text-1" data-fill-palette-color="secondary" id="text-1"></path></svg></g></svg></g></svg></g></svg></g></svg></g></svg></g><g mask="url(#5d28c720-d69c-4c5d-a037-980aaf1b12e1)"><g transform="matrix(4.605481870834776, 0, 0, 4.605481870834776, 1, 56.6825999979642)"><svg xmlns="http://www.w3.org/2000/svg" xmlns:xlink="http://www.w3.org/1999/xlink" version="1.1" x="0" y="0" viewBox="7.26200008392334 37.358123779296875 85.44599914550781 29.059890747070312" enable-background="new 0 0 100 100" xml:space="preserve" height="29.059890747070312" width="85.44599914550781" class="icon-none" data-fill-palette-color="accent" id="none"><path d="M90.078 42.185c0.11-2.417-2.07-2.934-2.07-2.934-16.568-5.696-30.375 3.279-30.375 3.279-2.918 2.457-5.553 3.025-7.589 2.91v-0.002c-0.015 0.001-0.03 0-0.045 0-0.015 0-0.03 0.001-0.045 0v0.002c-2.037 0.115-4.671-0.453-7.589-2.91 0 0-13.807-8.975-30.375-3.279 0 0-2.181 0.518-2.071 2.934H7.262v3.591h3.104c0.948 5.735 3.777 16.602 11.805 19.362 0 0 10.7 3.969 17.949-2.071 0 0 3.279-1.553 6.73-12.426 0 0 1.343-1.828 3.148-1.663 1.804-0.165 3.148 1.663 3.148 1.663 3.451 10.873 6.73 12.426 6.73 12.426 7.248 6.04 17.948 2.071 17.948 2.071 8.027-2.76 10.856-13.627 11.805-19.362h3.079v-3.591H90.078z" fill="#a62a6c" data-fill-palette-color="accent"></path></svg></g></g></svg></g><defs><mask id="dc883a73-f54c-431f-b10c-3843028ddb80"><rect width="640" height="400" fill="white"></rect><rect width="348.05760000000004" height="78.81230863637612" fill="black" x="145.97119999999998" y="160.59384568181196" id="transform-me" transform="matrix(1,0,0,1,-132.46023559570312,-105.79833984375)"></rect></mask><mask id="aaa4d601-2538-411c-a7fc-c876fa2e1072"><rect width="640" height="400" fill="white"></rect><rect width="348.05760000000004" height="78.81230863637612" fill="black" x="145.97119999999998" y="160.59384568181196" id="transform-me" transform="matrix(1,0,0,1,-132.46023559570312,-105.79833984375)"></rect></mask><mask id="1193cd79-9d57-48e5-89f2-1924358e4045"><rect width="640" height="400" fill="white"></rect><rect width="348.05760000000004" height="78.81230863637612" fill="black" x="145.97119999999998" y="160.59384568181196" id="transform-me" transform="matrix(1,0,0,1,-132.46023559570312,-105.79833984375)"></rect></mask><mask id="153bee7f-772e-4475-a3cd-a2a7fc958eb1"><rect width="640" height="400" fill="white"></rect><rect width="348.05760000000004" height="78.81230863637612" fill="black" x="145.97119999999998" y="160.59384568181196" id="transform-me" transform="matrix(1,0,0,1,-132.46023559570312,-105.79833984375)"></rect></mask><mask id="5d28c720-d69c-4c5d-a037-980aaf1b12e1"><rect width="640" height="400" fill="white"></rect><rect width="348.05760000000004" height="78.81230863637612" fill="black" x="145.97119999999998" y="160.59384568181196" id="transform-me" transform="matrix(1,0,0,1,-132.46023559570312,-105.79833984375)"></rect></mask></defs></svg><rect width="395.52" height="247.2" fill="none" stroke="none" visibility="hidden"></rect></g></svg></g></svg>